<svg xmlns="http://www.w3.org/2000/svg" xmlns:xlink="http://www.w3.org/1999/xlink" viewBox="0 0 180 180" xmlns:v="https://vecta.io/nano"><clipPath id="A"><path d="M0 0h180v180H0z"/></clipPath><linearGradient id="B" gradientUnits="userSpaceOnUse"><stop offset="0" stop-color="#83a4d4"/><stop offset=".954" stop-color="#b4f7fd"/><stop offset=".999" stop-color="#b6fbff"/></linearGradient><linearGradient id="C" x1="197.109" x2="70.814" xlink:href="#B" y1="215.403" y2="159.973"/><linearGradient id="D" x1="201.042" x2="66.171" xlink:href="#B" y1="216.864" y2="157.67"/><linearGradient id="E" x1="205.058" x2="61.541" xlink:href="#B" y1="218.164" y2="155.174"/><linearGradient id="F" x1="209.108" x2="56.948" xlink:href="#B" y1="219.321" y2="152.538"/><linearGradient id="G" x1="213.181" x2="52.457" xlink:href="#B" y1="220.264" y2="149.722"/><linearGradient id="H" x1="217.194" x2="48.121" xlink:href="#B" y1="220.918" y2="146.711"/><linearGradient id="I" x1="221.246" x2="43.991" xlink:href="#B" y1="221.298" y2="143.501"/><linearGradient id="J" x1="225.267" x2="40.136" xlink:href="#B" y1="221.301" y2="140.047"/><linearGradient id="K" x1="229.231" x2="36.65" xlink:href="#B" y1="220.891" y2="136.368"/><linearGradient id="L" x1="233.145" x2="33.724" xlink:href="#B" y1="219.966" y2="132.441"/><linearGradient id="M" x1="236.994" x2="31.446" xlink:href="#B" y1="218.469" y2="128.254"/><linearGradient id="N" x1="240.769" x2="29.893" xlink:href="#B" y1="216.345" y2="123.792"/><linearGradient id="O" x1="244.493" x2="29.171" xlink:href="#B" y1="213.49" y2="118.985"/><linearGradient id="P" x1="245.96" x2="27.174" xlink:href="#B" y1="214.887" y2="118.862"/><linearGradient id="Q" x1="246.042" x2="24.749" xlink:href="#B" y1="218.685" y2="121.56"/><linearGradient id="R" x1="245.835" x2="23.211" xlink:href="#B" y1="221.999" y2="124.289"/><linearGradient id="S" x1="245.435" x2="22.631" xlink:href="#B" y1="224.831" y2="127.043"/><linearGradient id="T" x1="244.901" x2="23.136" xlink:href="#B" y1="227.108" y2="129.775"/><linearGradient id="U" x1="244.269" x2="24.701" xlink:href="#B" y1="228.858" y2="132.49"/><linearGradient id="V" x1="243.608" x2="27.408" xlink:href="#B" y1="230.096" y2="135.206"/><linearGradient id="W" x1="243.017" x2="31.297" xlink:href="#B" y1="230.852" y2="137.928"/><g clip-path="url(#A)" opacity=".8"><path d="m211.1 144.5c4 1.7 6.8 4.1 8.4 7.1 3 5.6 1.4 13-4.6 21.4l-.1.2-72.9 14.7c-5.2 1-11 3.3-16.1 6.1l-49.1 27.4c-9.7 5.4-21.6 8.2-26.9 6.3-1.4-.5-2.3-1.3-2.7-2.3-3.6-8.9 3.6-21.8 19.5-35.3 30.8-26.1 85.9-48 122.7-48.7 9.1-.4 16.4.8 21.8 3.1zm3 27.7c5.6-7.9 7.1-14.9 4.4-20.1-3.5-6.7-13.9-10.2-29.2-9.8-36.6.7-91.4 22.5-122 48.5-15.6 13.2-22.6 25.6-19.2 34.1.3.7 1 1.3 2.1 1.7 5.1 1.8 16.6-.9 26-6.2l49.1-27.4c5.1-2.9 11.1-5.1 16.4-6.2z" fill="url(#C)"/><path d="m214.1 145.1c4.7 2.1 8 4.9 9.6 8.5 2.8 6.3.5 14.4-6.9 23.3l-.1.2-75.2 11.3c-5.4.8-11.5 2.8-16.9 5.5l-52.8 26.3c-10.5 5.2-22.7 7.5-27.9 5.1-1.4-.6-2.2-1.5-2.5-2.7-2.5-9.7 6.2-23.1 23.9-36.6 34.2-26.1 92.3-46.1 129.5-44.6 7.9.3 14.4 1.6 19.3 3.7zm2 31c6.9-8.6 9.2-16.2 6.6-22-3.1-6.9-13-11-27.9-11.6-37-1.5-94.7 18.5-128.8 44.4-17.3 13.2-25.9 26.1-23.5 35.4.2.8.8 1.5 1.9 1.9 4.9 2.2 16.8 0 27-5l52.8-26.3.2.5-.2-.5c5.5-2.7 11.8-4.8 17.2-5.6z" fill="url(#D)"/><path d="m216.9 145.8c5.6 2.4 9.3 5.9 10.9 10.2 2.7 7.1-.6 15.8-9.4 25.4l-.1.2-77.1 7.4c-5.5.5-11.9 2.3-17.7 4.8l-56.3 25c-11.1 4.9-23.7 6.6-28.7 3.7-1.3-.8-2.1-1.8-2.3-3.1-1.3-10.6 9-24.3 28.5-37.7 37.6-25.9 98.5-43.7 135.8-39.9 6.5.8 12 2.1 16.4 4zm.8 34.6c8.4-9.2 11.5-17.5 9-24.1-2.7-7.1-12.1-11.9-26.4-13.4-37.1-3.9-97.7 13.9-135.1 39.7-19.1 13.1-29.3 26.5-28 36.6.1.9.7 1.7 1.7 2.2 4.7 2.7 16.9 1 27.7-3.8l56.3-25 .2.5-.2-.5c5.9-2.6 12.4-4.4 18-4.9z" fill="url(#E)"/><path d="m219.1 146.5c6.7 2.9 10.9 7 12.5 12.1 2.4 7.9-1.8 17.4-12.3 27.4l-.2.1-78.5 3.2c-5.6.2-12.3 1.7-18.4 4.1l-59.7 23.3c-11.8 4.6-24.4 5.6-29.3 2.3-1.3-.9-2-2.1-2-3.5-.1-11.4 12-25.4 33.2-38.5 41-25.4 104.5-40.8 141.6-34.3 5 .9 9.4 2.2 13.1 3.8zm-.4 38.6c10-9.7 14.1-18.8 11.8-26.2-2.3-7.5-10.8-12.7-24.7-15.1-36.9-6.4-100.1 8.9-140.8 34.2-20.8 12.9-32.7 26.6-32.6 37.6 0 1 .5 1.9 1.5 2.6 4.5 3.1 16.9 2 28.2-2.4l59.7-23.3.2.5-.2-.5c6.2-2.4 13.1-3.9 18.8-4.2z" fill="url(#F)"/><path d="m220.8 147.2c8 3.5 13 8.5 14.4 14.5 2.1 8.8-3.2 19-15.4 29.5l-.2.1-79.5-1.4c-5.7-.1-12.6 1.1-19 3.3l-.2-.5.2.5-63 21.3c-12.3 4.1-25 4.5-29.6.8-1.3-1.1-1.9-2.4-1.8-4 1.3-12.2 15.1-26.4 38-39.2 44.3-24.7 110.2-37.3 146.8-28.1 3.4.9 6.5 2 9.3 3.2zm-1.6 43c11.6-10.1 16.9-20.1 14.9-28.3-1.8-7.7-9.7-13.5-22.9-16.8-36.4-9.1-101.9 3.4-146 28-22.5 12.6-36.2 26.5-37.4 38.3-.1 1.2.3 2.2 1.4 3 4.3 3.4 16.8 3 28.6-1l63-21.3c6.6-2.2 13.6-3.4 19.4-3.3z" fill="url(#G)"/><path d="m221.8 147.7c9.7 4.3 15.5 10.2 16.7 17.5 1.6 9.6-5.1 20.8-18.9 31.6l-.2.1-79.9-6.4c-5.7-.5-12.8.4-19.6 2.3l-66 18.9c-12.6 3.6-25.4 3.2-29.8-.8-1.3-1.2-1.8-2.8-1.5-4.5 2.7-12.9 18.4-27.4 42.9-39.6 47.6-23.7 115.5-33.1 151.3-21 1.8.6 3.4 1.2 5 1.9zm-2.7 48c13.4-10.5 19.9-21.3 18.3-30.4-1.3-7.9-8.6-14.3-20.9-18.5-35.5-12-103-2.6-150.4 21-24.2 12.1-39.7 26.2-42.4 38.8-.3 1.3.1 2.5 1.2 3.4 4.1 3.8 16.5 4.1 28.7.6l66-18.9c6.9-2 14.2-2.8 20-2.4z" fill="url(#H)"/><path d="M222 147.9h0c11.9 5.2 18.6 12.5 19.4 21.1 1.1 10.6-7 22.6-22.8 33.6l-.2.1-79.6-11.7c-5.7-.8-13-.4-20 1.3L50 208.5c-13 3.1-25.5 2-29.8-2.5-1.3-1.4-1.7-3.2-1.2-5.1 4.3-13.7 21.8-28.1 48-39.7 51-22.5 120.4-28.4 155-13.3zm-3.7 53.7c15.3-10.8 23.1-22.3 22.1-32.5-.8-8.2-7.3-15.2-18.8-20.2-34.3-15.1-103.4-9.2-154 13.2-25.9 11.4-43.2 25.7-47.4 39-.5 1.5-.2 2.8.9 4 3.9 4.2 16.2 5.1 28.7 2.2l68.8-16.2.1.5-.1-.5c7.2-1.7 14.6-2.2 20.4-1.3z" fill="url(#I)"/><path d="M221.4 147.8l5.7 2.8c10.9 6.1 16.8 14 17 22.8.3 11.7-9.2 24.3-26.9 35.5l-.2.1-78.9-17.5c-5.6-1.2-13-1.2-20.3.1l-71.2 13.1c-13.1 2.4-25.5.6-29.5-4.3-1.4-1.7-1.6-3.7-.8-5.7 6-14.4 25.3-28.8 53.1-39.6 51-19.7 117-22.6 152-7.3zm-4.6 60.1c17.2-11 26.5-23.2 26.2-34.4-.2-8.4-5.9-16-16.5-21.9-32.8-18.3-103.1-16.2-156.7 4.7-27.5 10.7-46.6 24.9-52.5 39-.7 1.7-.5 3.2.6 4.6 3.6 4.5 15.9 6.2 28.4 3.9l71.2-13.1.1.5-.1-.5c7.4-1.4 15-1.4 20.7-.1z" fill="url(#J)"/><path d="m219.8 147.1c4.5 2 8.5 4.2 12 6.6 9.9 6.9 14.9 15.4 14.5 24.6-.6 12.8-11.8 26.1-31.4 37.2l-.2.1-77.5-23.6c-5.5-1.7-12.9-2.1-20.4-1.1l-73.3 9.6c-13.3 1.8-25.3-.7-29-6-1.4-2-1.5-4.2-.3-6.5 7.7-15 29-29.2 58.2-39.1 50.4-16.9 112.4-17.1 147.4-1.8zm-5.3 67.4c19.2-11 30.1-23.8 30.7-36.2.4-8.7-4.4-16.9-14-23.6-30.9-21.6-101.9-23.7-158.5-4.7-29 9.8-50 23.8-57.6 38.5-1 1.9-.9 3.7.2 5.4 3.5 4.9 15.2 7.3 27.9 5.6l73.3-9.6c7.6-1 15.3-.6 20.9 1.1z" fill="url(#K)"/><path d="m217.2 145.8c7.5 3.3 13.9 7.2 19 11.6 8.9 7.8 12.9 16.9 11.7 26.4-1.8 14-14.6 27.7-36.2 38.7l-.2.1-75.1-30.1c-5.3-2.1-12.8-3-20.4-2.4l-75 5.8c-13.2 1-24.8-2.2-28.3-7.9-1.4-2.3-1.3-4.8.2-7.3 9.6-15.6 32.7-29.5 63.3-38.3 48.9-13.9 106.2-11.9 141 3.4zm-5.8 75.6c21.1-10.8 33.7-24.2 35.4-37.8 1.1-9.1-2.8-17.9-11.4-25.4-28.4-25-99.8-31.7-159-14.7-30.4 8.7-53.2 22.5-62.7 37.8-1.3 2.1-1.4 4.2-.2 6.2 3.2 5.2 14.7 8.3 27.2 7.3l75-5.8v.5-.5c7.8-.6 15.5.3 20.9 2.5z" fill="url(#L)"/><path d="m213.4 143.5c11.1 4.9 20.3 11 26.7 18.1 7.8 8.7 10.9 18.5 8.8 28.3-3.2 15.1-17.8 29.2-41.2 39.8l-.2.1-72.1-36.8c-5.1-2.6-12.5-4-20.3-3.9l-76.3 1.6c-12.9.3-24.2-3.7-27.3-9.7-1.4-2.7-1.1-5.5.8-8.3 11.5-16.1 36.4-29.6 68.3-37.1 46.8-10.8 98.9-6.9 132.8 7.9zm-5.9 85.2c23-10.5 37.3-24.3 40.4-39 2-9.5-1-18.9-8.5-27.4-25.6-28.6-96.7-40.1-158.4-25.6-31.6 7.4-56.3 20.8-67.7 36.7-1.7 2.4-2 4.8-.8 7.1 3 5.6 13.8 9.4 26.3 9.1l76.3-1.6c8-.2 15.6 1.3 20.8 4z" fill="url(#M)"/><path d="M208.5 140.2c15.5 6.8 27.8 15.7 35.1 26.2 6.7 9.7 8.7 20.2 5.6 30.4-4.8 16.1-21.3 30.5-46.4 40.5l-.3.1-68.2-44c-4.8-3.1-12.1-5.1-20-5.4l-77-3c-12.8-.5-23.3-5.1-26.2-11.5-1.4-3.1-.9-6.3 1.6-9.3C26.3 147.8 53 134.8 86 128.8c43.6-8 90-2.8 122.5 11.4zm-5.9 96c24.6-9.9 40.8-24 45.5-39.7 3-9.9 1.1-20.1-5.4-29.5-22.4-32.2-92.6-48.9-156.5-37.2-32.8 6-59.2 18.8-72.6 35.1-2.1 2.6-2.6 5.4-1.4 8.1 2.7 6 12.8 10.4 25.2 10.9l77 3c8 .3 15.5 2.3 20.5 5.6z" fill="url(#N)"/><path d="M202.7 135.7c20.5 9 36.3 21.4 43.9 36 5.6 10.7 6.3 22.1 2 32.8-6.8 17-25.1 31.4-51.6 40.6l-.3.1-63.4-51.4c-4.5-3.6-11.6-6.2-19.4-7L36.6 179c-12.5-1.3-22.2-6.5-24.8-13.3-1.4-3.6-.5-7.2 2.5-10.4 15.6-16.9 44.1-29.1 78.1-33.5 39.4-5.3 80 .6 110.3 13.9zM196.9 244c26.1-9.1 44.1-23.3 50.7-39.9 4.1-10.4 3.5-21.4-2-31.9-18.7-35.9-87.3-58.1-153.1-49.5-33.7 4.4-62 16.5-77.4 33.2-2.7 2.9-3.4 6.1-2.2 9.3 2.4 6.3 12 11.4 23.9 12.6l77.2 7.9c8.1.8 15.4 3.5 20 7.2z" fill="url(#O)"/><path d="m196.2 130c26 11.4 45.6 28.1 52.7 47.6 4.4 11.9 3.7 24.1-2 35.4-8.9 17.7-29 31.9-56.8 40.1l-.3.1-57.7-59c-4.1-4.2-10.9-7.3-18.7-8.7l-76.9-13.3c-11.9-2.1-21-8-23.2-15.1-1.3-4.1 0-8.2 3.5-11.6 17.8-17.1 47.9-28.4 82.7-31.1 34.7-2.6 69.3 3.5 96.7 15.6zm-6.1 122c27.3-8.1 47.1-22.1 55.8-39.5 5.5-11 6.2-22.9 2-34.5-14.5-39.6-81-67.6-148.3-62.4-34.5 2.6-64.4 13.9-82 30.8-3.3 3.1-4.4 6.8-3.2 10.5 2.1 6.7 10.8 12.4 22.3 14.3l76.9 13.3-.1.5.1-.5c8 1.4 15.1 4.7 19.3 9z" fill="url(#P)"/><path d="m189.6 123c31.9 14 55.3 36 60.9 61 7.8 34.3-19.7 65.3-68.3 77.2l-.3.1-51.1-66.8c-3.6-4.7-10.1-8.5-17.8-10.4l-75.8-18.9c-11.4-2.8-19.6-9.3-21.4-16.8-1.1-4.7.6-9.3 4.7-13 19.9-17.2 51.6-27.5 87-28.2 29.6-.6 58.2 5.3 82.1 15.8zm-7.2 137.1c47.8-11.8 74.7-42.3 67.1-75.8-4.7-20.8-22.1-40.2-49-54.6-26.9-14.5-59.9-22.1-92.8-21.4-35.1.7-66.6 10.9-86.3 28-3.9 3.4-5.4 7.5-4.4 11.9 1.7 7 9.8 13.3 20.6 16l75.8 18.9-.1.5.1-.5c7.9 2 14.7 5.9 18.4 10.8z" fill="url(#Q)"/><path d="m183.5 115c37.8 16.6 64.8 44.9 67.9 76 3.7 37.2-27.6 68.7-78 78.5l-.4.1-43.4-74.7c-3.1-5.3-9.1-9.7-16.6-12.3l.2-.5-.2.5-74.1-25c-10.7-3.6-18.1-10.7-19.4-18.5-.9-5.4 1.3-10.6 6.2-14.4 22.1-17.2 55.3-26.3 91-24.9 23.9 1 46.9 6.5 66.8 15.2zm-9.9 153.3c49.6-9.7 80.4-40.7 76.7-77.2-2.3-22.6-17.4-44.4-42.8-61.6s-57.7-27.3-90.9-28.6c-35.5-1.4-68.4 7.6-90.3 24.6-4.6 3.6-6.6 8.3-5.8 13.3 1.3 7.4 8.4 14.2 18.7 17.6l74.1 25c7.8 2.6 14.1 7.3 17.2 12.8z" fill="url(#R)"/><path d="M178.2 106.1c13.7 6 26.3 13.8 37.2 23 23.7 20.1 36.5 44.8 36.1 69.5-.7 40-36.1 71.8-88 79.2l-.4.1-34.8-82.8c-2.4-5.8-8-10.9-15.3-14.2l.2-.5-.2.5-71.8-31.3c-9.8-4.3-16.4-12-17.2-20.1-.6-6.2 2.2-11.9 7.9-15.8 24.4-17.1 58.9-24.8 94.7-21 18.1 1.7 35.6 6.4 51.6 13.4zm-14.5 170.5c51.1-7.4 85.9-38.7 86.6-78.1.4-24.3-12.2-48.7-35.7-68.6s-54.8-32.8-88.1-36.3c-35.5-3.7-69.8 3.9-94 20.9-5.4 3.8-8 9-7.4 14.8.8 7.7 7.1 15.1 16.6 19.2h.1l71.7 31.3h.1c7.5 3.3 13.3 8.7 15.8 14.7z" fill="url(#S)"/><path d="m174.8 96.5c18.3 8.1 34.7 19.4 47.8 33.5 21.5 23 31.4 50.2 28 76.7-5.5 42.8-45 74.7-98.1 79.4h-.5l-25-90.9c-1.8-6.4-6.7-12.3-13.7-16.1l-68.4-38c-9.2-5.1-14.8-13.2-15-21.7-.2-7 3.4-13.3 9.8-17.3 26.6-16.8 62.3-22.9 97.9-16.7 13 2.2 25.5 6 37.2 11.1zm-22 188.4c52.4-4.8 91.2-36.2 96.6-78.4 3.4-26.1-6.5-53-27.7-75.8-21.3-22.8-51.3-38.6-84.4-44.3-35.3-6.1-70.7-.1-97.1 16.6-6.2 3.9-9.5 9.7-9.3 16.4.2 8.1 5.6 15.9 14.4 20.8l68.4 38c7.2 4 12.4 10.1 14.2 16.8z" fill="url(#T)"/><path d="m173.2 86.4c22.8 10 42.4 25.5 56.5 45 18.9 26 25.6 55.8 19 83.8-10.7 45.5-54.3 77.2-108.3 79h-.5l-14.3-98.9c-1-7-5.3-13.6-11.8-18.1l-64.4-44.9c-8.3-5.8-13-14.5-12.6-23.3.4-7.8 4.7-14.7 12-18.8 28.8-16.4 65.5-20.7 100.7-11.9 8.2 2.1 16.1 4.8 23.7 8.1zm-32.3 206.7c53.3-1.9 96.2-33.3 106.8-78.1 6.5-27.8-.1-57.2-18.8-82.9-18.7-25.8-47-44.5-79.7-52.7-34.9-8.8-71.3-4.5-99.9 11.8-6.9 3.9-11.1 10.4-11.4 17.9-.4 8.4 4.1 16.8 12.1 22.3l64.4 44.9c6.8 4.7 11.3 11.6 12.3 18.8z" fill="url(#U)"/><path d="M173.6 75.9c27.1 11.9 49.2 31.9 63.2 57.5 15.9 29 19.1 61.3 9 91-16.3 48.1-63.9 79.4-118.6 77.9h-.5v-.5l-2.5-106.4c-.2-7.5-3.7-14.9-9.8-20.1L55 123.1c-7.4-6.5-11.1-15.8-10-24.9 1.1-8.7 6.3-16 14.4-20.1 31-15.8 68.5-18.1 102.9-6.5 3.8 1.2 7.6 2.7 11.3 4.3zm-45.8 225.2c54 1.2 100.9-29.7 117-77.2 9.9-29.4 6.8-61.3-9-90.1-15.7-28.7-42-50.5-73.9-61.3-34-11.5-71.2-9.1-102 6.5-7.7 3.9-12.7 10.9-13.8 19.3-1.1 8.8 2.5 17.7 9.6 24l59.4 52.1c6.3 5.5 9.9 13.1 10.1 20.9z" fill="url(#V)"/><path d="M176 65c31.1 13.7 55.2 38.8 67.7 70.9 12.5 32 11.8 66.8-1.8 98C219.7 284.4 168 315 113.1 310h-.5l10.3-114.7c.7-8.1-2-16.2-7.4-22.2l-53.6-59.5c-6.6-7.3-9.2-17-7.2-26.7 2-9.5 8.2-17.3 17-21.3 33.1-15 71.1-15.2 104.3-.6zm-62.3 243.9c54.2 4.6 105.3-25.7 127.2-75.5 13.5-30.9 14.2-65.4 1.8-97.1-12.4-31.8-36.2-56.7-67.1-70.3-32.9-14.5-70.7-14.2-103.5.6-8.5 3.8-14.5 11.3-16.4 20.5-1.9 9.3.6 18.6 6.9 25.7l53.6 59.5c5.6 6.3 8.4 14.7 7.7 23z" fill="url(#W)"/></g></svg>