<svg xmlns="http://www.w3.org/2000/svg" viewBox="0 0 180 180" xmlns:v="https://vecta.io/nano"><clipPath id="A"><path d="M0 0h180v180H0z"/></clipPath><linearGradient id="B" gradientUnits="userSpaceOnUse" x1="0" x2="297.16" y1="194.131" y2="194.131"><stop offset="0" stop-color="#83a4d4"/><stop offset=".954" stop-color="#b4f7fd"/><stop offset=".999" stop-color="#b6fbff"/></linearGradient><radialGradient id="C" cx="148.583" cy="194.143" gradientUnits="userSpaceOnUse" r="133.117"><stop offset=".177"/><stop offset="1" stop-color="#56c5ff"/></radialGradient><path clip-path="url(#A)" d="M289.2 235.6l-155.6-41.7L247.5 80.1l.1.4zm-154.6-41.9l153.9 41.2L247.3 81zM285 239.6l-153.2-49.8L251.5 82.1l.1.4zm-152.2-50l151.5 49.2L251.2 83zm147.8 53.7l-.4-.2-149.9-57.6L255.5 84.3l.1.4zm-149.3-57.8L280 242.6 255.1 85.2zm144.8 61.3l-.4-.2L129 181.3l130.3-94.7v.4zm-146.2-65.6L275.5 246 258.8 87.6zm141.4 68.9l-.4-.2L127.8 177l135.1-87.7v.4zm-142.5-73.2l142 72.3-8.3-159.1zm137.6 76.2L127 172.6l139.5-80.5v161zm-138.5-80.5l138 79.7V92.9zm133.5 83.2l-135.1-87.7.4-.2L269.8 95v.4zm-134.1-87.6L260.9 255l8.3-159.1zm128.9 90.1l-130.3-94.7L273 98.2v.4zm-129.3-94.5l128.9 93.7L272.4 99zm123.9 96.7L125.7 159.2 276 101.5l-.1.4zM126.7 159.3l123.8 100.3 24.9-157.4zm118.7 103.2L125.7 154.7l.4-.1L278.9 105l-.1.4zM126.7 154.9l118.4 106.6 33.1-155.8zm113.2 109.2L126 150.2l155.6-41.7-.1.4zM127 150.5l112.7 112.7 41.2-153.9zm107.3 114.9l-.3-.3-107.5-119.3.4-.1L284 112.3zM127.5 146.1l106.6 118.4L283.3 113zm101.1 120.4l-.3-.3-101-124.9 159.1-25.2zM128.2 141.7l100.3 123.8 57.1-148.7zm94.7 125.5l-.3-.3L128.2 137l160.2-16.8-.2.4zm-93.7-129.8l93.7 128.9 64.8-145.6zm88 130.3l-87.7-135.1 160.8-8.4-.2.4zm-86.8-134.6l86.8 133.6 72.3-142zm81 134.7l-.2-.4-80.3-139.1h161l-.2.4zm-79.6-138.9l79.7 138 79.7-138zm73.9 138.8l-.2-.4-72.9-143.1 160.8 8.4zm-72.3-143l72.3 142 86.8-133.6zm66.5 142.5l-65.5-147.1 160.2 16.8-.3.3zm-64.7-146.5L200 266.3l93.7-128.9zm59 145.8l-57.7-150.3 159.1 25.2zm-56.9-149.7l57.1 148.7 100.3-123.8zm51.3 148.6l-49.8-153.2.4.1 157.1 33.4-.3.3zm-49.1-152.5l49.2 151.5L295.3 146zM183 264.1l-.1-.4-41.6-155.1 155.6 41.7zm-41-154.9l41.2 153.9 112.7-112.7zm35.4 153.3l-.1-.4L144 104.9l153.2 49.8zm-32.8-156.8l33.1 155.8 118.4-106.6zM172 260.5l-.1-.4-25.1-158.6.4.2 149.9 57.6-.3.3zm-24.6-158.3l24.9 157.4 123.8-100.3zm19.3 156.1v-.4L149.9 98.2 297 163.7l-.3.3zM150.4 99l16.7 158.5L296 163.8zm11.1 156.8v-.4L153.1 95l143.5 73.1zm-7.9-159.9l8.3 159.1 133.6-86.8zm2.8 157.2v-161l139.5 80.5zm.5-160.2v159.3l138-79.7zm-5.4 157.2v-.4l8.4-160.4L295 177l-.4.2zm8.9-159.9l-8.3 159.1 142-72.3zm-13.6 156.6v-.4l16.8-159.7.3.3 129.9 94.4zM164 87.6L147.4 246 293 181.2zm-21.8 155.7l.1-.4 25.1-158.6 125.2 101.3zm25.6-158.1l-24.9 157.4 148.7-57.1zm-30 154.4l.1-.4 33.4-157.1L291 189.8l-.4.1zM171.6 83l-33.1 155.8L290 189.6zm-38 152.6l.1-.4 41.6-155.1L289.2 194zm42-154.6l-41.2 153.9 153.9-41.2zm-46.1 225.1L23.1 185.2 181 153.5l-.1.4zM24 185.5l105.3 119.6 50.9-151zM123.8 307L23.9 180.7l159.3-23.4-.2.4zm-99-125.9L123.7 306l58.8-148zm93.3 126.6l-.2-.3-92.9-131 160.3-15-.2.4zM25.8 176.8l92.2 130L184.4 162zm86.6 131.3l-.2-.4-86-135.6 160.9-6.6-.2.4zM27.1 172.5l85.3 134.6L186.2 166zm79.5 135.7l-.2-.4-78.7-140 161 1.8-.2.4zM28.5 168.3l78.1 138.9 81.2-137.1zM100.8 308L29.4 163.7l160.7 10.2zM30.2 164.2L100.9 307l88.3-132.6zm64.9 143.3L31.3 159.6h.4l159.5 18.6-.3.3zm-63-147.3l63.2 146.3 95.1-127.8zm57.3 146.4l-56-151 158.8 27-.3.3zM34.2 156.3l55.4 149.4L191.2 183zm49.6 149.2l-48-153.7 157.1 35.3-.3.3zm-47.3-153L84 304.6l107.9-117.2zm41.7 151.6l-39.9-156 .4.1 154.7 43.3-.3.3zM38.9 148.8l39.5 154.4 113.9-111.4zm33.8 153.6L41 144.5 193.6 196l-.3.3zM41.6 145.3L73 301.5l119.6-105.3zm25.7 155.1l-.1-.4-23.3-158.9.4.2 149.3 59.2zM44.5 141.9l23.1 157.6 124.9-98.9zM62 298.2v-.4L47 137.9 193.3 205zM47.5 138.6l14.9 158.6 130-92.2zm9.3 157v-.4l-6.6-160.5 142.7 74.7-.4.2zm-6.1-160l6.5 159.2 134.6-85.3zm1.1 157.2l1.8-161 138.5 82.1-.4.2zm2.3-160.1L52.3 292l138.9-78.1zm-7.2 157.1v-.4l10.2-160.3 134.1 89.2-.4.2zm10.7-159.9L47.4 289l142.8-70.7zM42.2 286.5v-.4l18.6-159.5 129.2 96zm19-159.1L42.8 285.7l146.3-63.2zM37.7 282.9l27-158.8 124 102.8-.4.1zM65 125.1l-26.7 157 149.4-55.4zm-31.7 154L68.6 122 187 231.1zm35.6-156.2L34 278.4l152.1-47.5zM29.2 275.1L72.6 120l.3.3 112.3 114.8-.4.1zM72.9 121l-43 153.4 154.4-39.5zM25.3 270.9l.1-.4 51.4-152.2 106.4 120.9zM77 119.3L26 270.2l156.2-31.4zM21.6 266.5l.2-.4L81 116.8l99.9 126.3zm59.5-148.7l-58.7 148L180 242.7zm-63 144.1l.2-.4 67-146 .2.3 92.9 131h-.4zm67.3-145.4L18.9 261.3l158.6-14.9zM14.9 257.1l.2-.4 74.5-142.3 86.2 136h-.4zm74.8-141.7L15.8 256.5 175 250zM12 252.1l.2-.4 81.9-138.2L173 253.9zm82-137.5l-81.2 137 159.3 1.8zM9.3 247l89.2-134L170 257.3zm89.1-133L10.2 246.6l159 10.1zM6.9 241.8l.3-.3L103 112.6l63.8 147.8h-.4zm96-128.2L7.8 241.4 166 259.9zM4.7 236.5l.3-.3 102.5-123.7.1.4 55.9 150.6zm102.6-123.1L5.6 236.1l157.1 26.7zM2.9 231l.3-.3L112 112.6l48 153.7zm108.8-117.5L3.8 230.7l155.5 34.9zM1.3 225.5l.3-.3 114.8-112.3 39.9 156-.4-.1zm114.9-111.7L2.2 225.2l153.4 43zM0 219.9l.3-.3 120.6-106.1 31.7 157.9zm120.6-105.5L1 219.7l151 50.9z" fill="url(#B)" stroke="url(#C)" stroke-miterlimit="10" stroke-width=".683"/></svg>